<svg width="150" height="28" viewBox="0 0 150 28" fill="none" xmlns="http://www.w3.org/2000/svg">
<path d="M5.34451 22.973C4.29436 22.973 3.28797 22.8349 2.32533 22.5588C1.36269 22.2702 0.587584 21.8999 0 21.4481L1.0314 19.1515C1.59398 19.5531 2.25657 19.8856 3.01918 20.1492C3.79429 20.4002 4.57565 20.5257 5.36327 20.5257C5.96335 20.5257 6.44467 20.4692 6.80722 20.3563C7.18228 20.2308 7.45732 20.0613 7.63234 19.848C7.80737 19.6346 7.89488 19.3899 7.89488 19.1138C7.89488 18.7624 7.75736 18.4863 7.48232 18.2855C7.20728 18.0722 6.84473 17.9027 6.39466 17.7772C5.9446 17.6392 5.44453 17.5137 4.89445 17.4007C4.35687 17.2752 3.81304 17.1246 3.26297 16.9489C2.72539 16.7732 2.23157 16.5473 1.7815 16.2712C1.33144 15.9951 0.962638 15.6312 0.675097 15.1794C0.400057 14.7276 0.262538 14.1502 0.262538 13.4474C0.262538 12.6944 0.462566 12.0105 0.862623 11.3955C1.27518 10.768 1.88777 10.2723 2.70039 9.90831C3.5255 9.53181 4.5569 9.34356 5.79458 9.34356C6.6197 9.34356 7.43231 9.44396 8.23243 9.64476C9.03254 9.83301 9.73889 10.1217 10.3515 10.5107L9.41385 12.8262C8.80126 12.4748 8.18867 12.2175 7.57608 12.0544C6.9635 11.8787 6.36341 11.7908 5.77583 11.7908C5.18824 11.7908 4.70692 11.8599 4.33187 11.9979C3.95682 12.136 3.68803 12.3179 3.5255 12.5438C3.36298 12.7572 3.28172 13.0082 3.28172 13.2968C3.28172 13.6357 3.41924 13.9118 3.69428 14.1251C3.96932 14.3259 4.33187 14.4891 4.78193 14.6146C5.232 14.7401 5.72582 14.8656 6.2634 14.9911C6.81347 15.1166 7.3573 15.2609 7.89488 15.4241C8.44496 15.5872 8.94503 15.8069 9.39509 16.083C9.84516 16.3591 10.2077 16.723 10.4827 17.1748C10.7703 17.6266 10.9141 18.1977 10.9141 18.8879C10.9141 19.6284 10.7078 20.3061 10.2952 20.921C9.88266 21.536 9.26382 22.0317 8.43871 22.4082C7.62609 22.7847 6.59469 22.973 5.34451 22.973Z" fill="black"/>
<path d="M17.6593 22.8977C16.5717 22.8977 15.6028 22.678 14.7526 22.2388C13.9025 21.787 13.2337 21.1658 12.7461 20.3751C12.271 19.5844 12.0335 18.6871 12.0335 17.6831C12.0335 16.6665 12.271 15.7692 12.7461 14.9911C13.2337 14.2004 13.9025 13.5855 14.7526 13.1462C15.6028 12.6944 16.5717 12.4685 17.6593 12.4685C18.722 12.4685 19.6471 12.6944 20.4347 13.1462C21.2223 13.5855 21.8037 14.2193 22.1787 15.0476L19.9096 16.2712C19.6471 15.7943 19.3158 15.4429 18.9157 15.217C18.5282 14.9911 18.1031 14.8782 17.6406 14.8782C17.1405 14.8782 16.6904 14.9911 16.2904 15.217C15.8903 15.4429 15.5715 15.7629 15.334 16.1771C15.1089 16.5912 14.9964 17.0932 14.9964 17.6831C14.9964 18.273 15.1089 18.775 15.334 19.1891C15.5715 19.6033 15.8903 19.9233 16.2904 20.1492C16.6904 20.3751 17.1405 20.4881 17.6406 20.4881C18.1031 20.4881 18.5282 20.3814 18.9157 20.168C19.3158 19.9421 19.6471 19.5844 19.9096 19.095L22.1787 20.3375C21.8037 21.1532 21.2223 21.787 20.4347 22.2388C19.6471 22.678 18.722 22.8977 17.6593 22.8977Z" fill="black"/>
<path d="M29.9403 12.4685C30.7404 12.4685 31.453 12.6317 32.0781 12.958C32.7157 13.2717 33.2157 13.7612 33.5783 14.4263C33.9408 15.079 34.1221 15.9198 34.1221 16.9489V22.7471H31.1967V17.4007C31.1967 16.585 31.0154 15.9826 30.6529 15.5935C30.3028 15.2045 29.8027 15.0099 29.1527 15.0099C28.6901 15.0099 28.2713 15.1103 27.8962 15.3111C27.5337 15.4994 27.2461 15.7943 27.0336 16.1959C26.8336 16.5975 26.7336 17.1121 26.7336 17.7396V22.7471H23.8081V8.7788H26.7336V15.4241L26.0772 14.577C26.4398 13.8992 26.9586 13.3784 27.6337 13.0145C28.3088 12.6505 29.0776 12.4685 29.9403 12.4685Z" fill="black"/>
<path d="M41.8541 22.8977C40.7039 22.8977 39.6913 22.6718 38.8161 22.22C37.9535 21.7682 37.2847 21.1532 36.8096 20.3751C36.3345 19.5844 36.097 18.6871 36.097 17.6831C36.097 16.6665 36.3283 15.7692 36.7909 14.9911C37.2659 14.2004 37.9098 13.5855 38.7224 13.1462C39.535 12.6944 40.4539 12.4685 41.479 12.4685C42.4667 12.4685 43.3543 12.6819 44.1419 13.1086C44.942 13.5227 45.5734 14.1251 46.0359 14.9158C46.4985 15.6939 46.7298 16.6289 46.7298 17.7208C46.7298 17.8337 46.7235 17.9655 46.711 18.1161C46.6985 18.2541 46.686 18.3859 46.6735 18.5114H38.4786V16.7983H45.1358L44.0106 17.3066C44.0106 16.7795 43.9044 16.3214 43.6918 15.9324C43.4793 15.5433 43.1855 15.2421 42.8105 15.0288C42.4354 14.8029 41.9978 14.6899 41.4978 14.6899C40.9977 14.6899 40.5539 14.8029 40.1663 15.0288C39.7913 15.2421 39.4975 15.5496 39.285 15.9512C39.0724 16.3402 38.9662 16.8046 38.9662 17.3443V17.7961C38.9662 18.3483 39.0849 18.8377 39.3225 19.2644C39.5725 19.6786 39.9163 19.9986 40.3539 20.2245C40.8039 20.4379 41.329 20.5445 41.9291 20.5445C42.4667 20.5445 42.9355 20.463 43.3355 20.2998C43.7481 20.1367 44.1231 19.8919 44.4607 19.5656L46.0172 21.2599C45.5546 21.787 44.9733 22.1949 44.2732 22.4835C43.5731 22.7596 42.7667 22.8977 41.8541 22.8977Z" fill="black"/>
<path d="M53.0093 22.8977C52.0591 22.8977 51.2028 22.6843 50.4402 22.2576C49.6776 21.8184 49.0712 21.2097 48.6212 20.4316C48.1836 19.6535 47.9648 18.7373 47.9648 17.6831C47.9648 16.6163 48.1836 15.6939 48.6212 14.9158C49.0712 14.1377 49.6776 13.5353 50.4402 13.1086C51.2028 12.6819 52.0591 12.4685 53.0093 12.4685C53.8594 12.4685 54.6033 12.6568 55.2409 13.0333C55.8784 13.4098 56.3723 13.9808 56.7223 14.7464C57.0724 15.5119 57.2474 16.4908 57.2474 17.6831C57.2474 18.8628 57.0786 19.8417 56.7411 20.6198C56.4035 21.3854 55.9159 21.9564 55.2784 22.3329C54.6533 22.7094 53.8969 22.8977 53.0093 22.8977ZM53.5156 20.4881C53.9907 20.4881 54.422 20.3751 54.8095 20.1492C55.1971 19.9233 55.5034 19.6033 55.7284 19.1891C55.966 18.7624 56.0847 18.2604 56.0847 17.6831C56.0847 17.0932 55.966 16.5912 55.7284 16.1771C55.5034 15.7629 55.1971 15.4429 54.8095 15.217C54.422 14.9911 53.9907 14.8782 53.5156 14.8782C53.028 14.8782 52.5905 14.9911 52.2029 15.217C51.8154 15.4429 51.5028 15.7629 51.2653 16.1771C51.0403 16.5912 50.9277 17.0932 50.9277 17.6831C50.9277 18.2604 51.0403 18.7624 51.2653 19.1891C51.5028 19.6033 51.8154 19.9233 52.2029 20.1492C52.5905 20.3751 53.028 20.4881 53.5156 20.4881ZM56.1597 22.7471V20.6763L56.216 17.6643L56.0285 14.6711V8.7788H58.9539V22.7471H56.1597Z" fill="black"/>
<path d="M65.9183 22.8977C65.0807 22.8977 64.3306 22.7345 63.668 22.4082C63.0179 22.0819 62.5116 21.5862 62.149 20.921C61.7865 20.2433 61.6052 19.3836 61.6052 18.342V12.6191H64.5306V17.909C64.5306 18.7499 64.7056 19.3711 65.0557 19.7727C65.4182 20.1618 65.9246 20.3563 66.5747 20.3563C67.0247 20.3563 67.4248 20.2622 67.7748 20.0739C68.1249 19.8731 68.3999 19.5719 68.5999 19.1703C68.8 18.7561 68.9 18.2416 68.9 17.6266V12.6191H71.8254V22.7471H69.05V19.9609L69.5563 20.7704C69.2188 21.4732 68.7187 22.0066 68.0561 22.3706C67.406 22.722 66.6934 22.8977 65.9183 22.8977Z" fill="black"/>
<path d="M74.5356 22.7471V8.7788H77.461V22.7471H74.5356Z" fill="black"/>
<path d="M80.1761 22.7471V12.6191H83.1015V22.7471H80.1761ZM81.6388 11.2072C81.1012 11.2072 80.6636 11.0504 80.3261 10.7366C79.9885 10.4229 79.8198 10.0338 79.8198 9.56946C79.8198 9.1051 79.9885 8.71605 80.3261 8.4023C80.6636 8.08854 81.1012 7.93167 81.6388 7.93167C82.1763 7.93167 82.6139 8.08227 82.9515 8.38347C83.289 8.67213 83.4578 9.04863 83.4578 9.51298C83.4578 10.0024 83.289 10.4103 82.9515 10.7366C82.6264 11.0504 82.1888 11.2072 81.6388 11.2072Z" fill="black"/>
<path d="M90.6922 22.8977C89.6045 22.8977 88.6357 22.678 87.7855 22.2388C86.9354 21.787 86.2666 21.1658 85.779 20.3751C85.3039 19.5844 85.0664 18.6871 85.0664 17.6831C85.0664 16.6665 85.3039 15.7692 85.779 14.9911C86.2666 14.2004 86.9354 13.5855 87.7855 13.1462C88.6357 12.6944 89.6045 12.4685 90.6922 12.4685C91.7549 12.4685 92.68 12.6944 93.4676 13.1462C94.2552 13.5855 94.8365 14.2193 95.2116 15.0476L92.9425 16.2712C92.68 15.7943 92.3487 15.4429 91.9486 15.217C91.5611 14.9911 91.136 14.8782 90.6735 14.8782C90.1734 14.8782 89.7233 14.9911 89.3233 15.217C88.9232 15.4429 88.6044 15.7629 88.3669 16.1771C88.1418 16.5912 88.0293 17.0932 88.0293 17.6831C88.0293 18.273 88.1418 18.775 88.3669 19.1891C88.6044 19.6033 88.9232 19.9233 89.3233 20.1492C89.7233 20.3751 90.1734 20.4881 90.6735 20.4881C91.136 20.4881 91.5611 20.3814 91.9486 20.168C92.3487 19.9421 92.68 19.5844 92.9425 19.095L95.2116 20.3375C94.8365 21.1532 94.2552 21.787 93.4676 22.2388C92.68 22.678 91.7549 22.8977 90.6922 22.8977Z" fill="black"/>
<path d="M96.841 22.7471V12.6191H99.7665V22.7471H96.841ZM98.3037 11.2072C97.7662 11.2072 97.3286 11.0504 96.9911 10.7366C96.6535 10.4229 96.4847 10.0338 96.4847 9.56946C96.4847 9.1051 96.6535 8.71605 96.9911 8.4023C97.3286 8.08854 97.7662 7.93167 98.3037 7.93167C98.8413 7.93167 99.2789 8.08227 99.6164 8.38347C99.954 8.67213 100.123 9.04863 100.123 9.51298C100.123 10.0024 99.954 10.4103 99.6164 10.7366C99.2914 11.0504 98.8538 11.2072 98.3037 11.2072Z" fill="black"/>
<path d="M133.225 22.5055C132.388 22.5055 131.638 22.3423 130.975 22.016C130.325 21.6897 129.819 21.194 129.456 20.5288C129.093 19.8511 128.912 18.9915 128.912 17.9498V12.2269H131.838V17.5168C131.838 18.3577 132.013 18.9789 132.363 19.3805C132.725 19.7696 133.232 19.9641 133.882 19.9641C134.332 19.9641 134.732 19.87 135.082 19.6817C135.432 19.4809 135.707 19.1797 135.907 18.7781C136.107 18.3639 136.207 17.8494 136.207 17.2344V12.2269H139.132V22.3549H136.357V19.5688L136.863 20.3782C136.526 21.081 136.026 21.6144 135.363 21.9784C134.713 22.3298 134 22.5055 133.225 22.5055Z" fill="black"/>
<path d="M145.237 22.5055C144.374 22.5055 143.543 22.4051 142.743 22.2043C141.955 21.9909 141.33 21.7274 140.867 21.4136L141.843 19.3052C142.305 19.5939 142.849 19.8323 143.474 20.0206C144.112 20.1963 144.737 20.2841 145.349 20.2841C146.024 20.2841 146.499 20.2025 146.775 20.0394C147.062 19.8762 147.206 19.6503 147.206 19.3617C147.206 19.1232 147.093 18.9475 146.868 18.8346C146.656 18.7091 146.368 18.615 146.006 18.5522C145.643 18.4895 145.243 18.4267 144.806 18.3639C144.38 18.3012 143.949 18.2196 143.512 18.1192C143.074 18.0063 142.674 17.8431 142.311 17.6298C141.949 17.4164 141.655 17.1278 141.43 16.7638C141.217 16.3999 141.111 15.9292 141.111 15.3519C141.111 14.7119 141.292 14.1471 141.655 13.6577C142.03 13.1682 142.568 12.7854 143.268 12.5093C143.968 12.2207 144.805 12.0763 145.781 12.0763C146.468 12.0763 147.168 12.1516 147.881 12.3022C148.594 12.4528 149.187 12.6725 149.662 12.9611L148.687 15.0507C148.2 14.7621 147.706 14.5675 147.206 14.4671C146.718 14.3542 146.243 14.2977 145.781 14.2977C145.131 14.2977 144.655 14.3856 144.355 14.5613C144.055 14.737 143.905 14.9629 143.905 15.239C143.905 15.49 144.012 15.6782 144.224 15.8037C144.449 15.9292 144.743 16.0296 145.106 16.1049C145.468 16.1802 145.862 16.2493 146.287 16.312C146.725 16.3622 147.162 16.4438 147.6 16.5567C148.037 16.6697 148.431 16.8328 148.781 17.0462C149.144 17.247 149.437 17.5294 149.662 17.8933C149.887 18.2447 150 18.7091 150 19.2864C150 19.9139 149.812 20.4724 149.437 20.9618C149.062 21.4387 148.519 21.8152 147.806 22.0913C147.106 22.3674 146.249 22.5055 145.237 22.5055Z" fill="black"/>
<path d="M110.45 10.6094C110.45 11.7139 109.558 12.6093 108.458 12.6093C107.357 12.6093 106.466 11.7139 106.466 10.6094C106.466 9.50484 107.357 8.60943 108.458 8.60943C109.558 8.60943 110.45 9.50484 110.45 10.6094Z" fill="#7B3635"/>
<path d="M121.512 8.08319L120.883 7.45163L117.79 10.5568L120.883 13.6094L121.407 12.9778L119.048 10.5568L121.512 8.08319Z" fill="#7B3635"/>
<path d="M109.506 21.1155C106.888 20.2216 103.582 17.2209 103.582 17.2209C103.582 17.2209 103.005 17.0629 103.005 17.6945C103.005 18.3261 107.934 21.4313 107.934 21.4313C107.934 21.4313 110.922 22.6417 113.543 22.6944C116.165 22.747 117.685 22.2207 120.044 21.4313C122.404 20.6418 125 17.905 125.13 17.6945C125.26 17.484 125.025 16.8525 124.553 17.1682C124.081 17.484 122.771 18.7471 122.771 18.7471C122.771 18.7471 123.416 16.3595 122.404 15.7998C121.577 15.3427 120.936 15.5367 120.044 16.3261C119.153 17.1156 117.161 21.2787 116.636 21.5891C116.112 21.8996 112.15 22.018 109.506 21.1155Z" fill="#7B3635"/>
<path d="M119.153 20.8523C118.479 21.2714 117.737 21.2733 117.737 21.2733C118.631 19.8065 119.111 18.9618 120.044 17.5366C119.959 17.5573 121.076 15.9418 121.932 16.3261C122.412 16.5417 122.486 17.172 122.351 17.7471C122.172 18.51 121.85 19.1195 121.303 19.747C121.031 20.0583 120.359 20.2207 120.359 20.2207C120.359 20.2207 121.303 18.2734 121.303 18.0102C121.303 17.7471 120.737 17.7958 120.726 17.905C120.715 18.0142 119.827 20.4331 119.153 20.8523Z" fill="#F6A85B"/>
</svg>
